<svg width="165" height="165" viewBox="0 0 165 165" fill="none" xmlns="http://www.w3.org/2000/svg">
<rect width="165" height="165" fill="#2853AF"/>
<path fill-rule="evenodd" clip-rule="evenodd" d="M82 76.3478C95.1127 76.3478 106.006 85.8253 108.177 98.2885H117.134C114.887 80.9257 100.014 67.5108 82 67.5108C63.9858 67.5108 49.1126 80.9257 46.8657 98.2885H55.8233C57.9941 85.8253 68.8873 76.3478 82 76.3478ZM108.387 105.986V105.987H101.117C94.845 105.994 89.7156 111.116 89.7156 117.376V124H74.2844V117.376C74.2844 111.116 69.155 105.994 62.8827 105.987H55.6135V105.986H46.711V105.987H37.8263V105.986H28.9515V105.987H20.0785C20.0268 104.95 20 103.908 20 102.859C20 68.6954 47.7586 41 82 41C116.241 41 144 68.6954 144 102.859C144 103.908 143.973 104.95 143.922 105.987H135.048V105.986H126.174V105.987H117.289V105.986H108.387ZM99.1432 98.3921C97.1597 90.7939 90.2366 85.1847 82 85.1847C73.7634 85.1847 66.8403 90.7939 64.8568 98.3921C74.4539 99.3924 82 107.547 82 117.376C82 107.547 89.5461 99.3924 99.1432 98.3921ZM29.0557 98.2885H37.949C40.2412 76.0336 59.0885 58.6739 82 58.6739C104.912 58.6739 123.759 76.0336 126.051 98.2885H134.944C132.621 71.1456 109.806 49.8369 82 49.8369C54.1937 49.8369 31.3789 71.1456 29.0557 98.2885Z" fill="white"/>
</svg>
